<mxfile host="" modified="2020-06-02T12:52:28.887Z" agent="5.0 (Windows NT 10.0; Win64; x64) AppleWebKit/537.36 (KHTML, like Gecko) Code/1.45.1 Chrome/78.0.3904.130 Electron/7.2.4 Safari/537.36" etag="DxWL3NSiGGHX-dByE4p9" version="13.1.3">
    <diagram id="6hGFLwfOUW9BJ-s0fimq" name="Page-1">
        <mxGraphModel dx="4726" dy="1382" grid="1" gridSize="10" guides="1" tooltips="1" connect="1" arrows="1" fold="1" page="1" pageScale="1" pageWidth="827" pageHeight="1169" math="0" shadow="0" extFonts="M PLUS Rounded 1c^https://fonts.googleapis.com/css?family=M+PLUS+Rounded+1c">
            <root>
                <mxCell id="0"/>
                <mxCell id="1" parent="0"/>
                <mxCell id="175" value="" style="rounded=1;whiteSpace=wrap;html=1;fillColor=none;fontFamily=M PLUS Rounded 1c;fontSize=9;align=left;direction=south;strokeColor=#6c8ebf;" parent="1" vertex="1">
                    <mxGeometry x="-1570" y="146" width="320" height="164" as="geometry"/>
                </mxCell>
                <mxCell id="168" value="" style="rounded=1;whiteSpace=wrap;html=1;fillColor=#ffe6cc;fontFamily=M PLUS Rounded 1c;fontSize=9;align=left;dashed=1;dashPattern=1 2;strokeColor=#d79b00;arcSize=11;" parent="1" vertex="1">
                    <mxGeometry x="-1475.85" y="163.5" width="131.7" height="134" as="geometry"/>
                </mxCell>
                <mxCell id="184" value="" style="rounded=1;whiteSpace=wrap;html=1;fillColor=none;fontFamily=M PLUS Rounded 1c;fontSize=9;align=left;direction=south;strokeColor=#6c8ebf;" parent="1" vertex="1">
                    <mxGeometry x="-1170.47" y="146" width="320" height="164" as="geometry"/>
                </mxCell>
                <mxCell id="30" value="" style="edgeStyle=orthogonalEdgeStyle;rounded=0;orthogonalLoop=1;jettySize=auto;html=1;" parent="1" edge="1">
                    <mxGeometry relative="1" as="geometry">
                        <mxPoint x="115" y="290.0000000000001" as="targetPoint"/>
                        <mxPoint x="125.0344827586207" y="350.0000000000001" as="sourcePoint"/>
                    </mxGeometry>
                </mxCell>
                <mxCell id="79" value="&lt;h1&gt;Push(プッシュ)&lt;/h1&gt;&lt;p&gt;&lt;font style=&quot;font-size: 12px&quot;&gt;ローカルリポジトリの変更内容をリモートリポジトリに反映させること&lt;/font&gt;&lt;/p&gt;" style="text;html=1;strokeColor=none;fillColor=none;spacing=5;spacingTop=-20;whiteSpace=wrap;overflow=hidden;rounded=0;fontSize=9;align=left;aspect=fixed;fontFamily=M PLUS Rounded 1c;FType=w;" parent="1" vertex="1">
                    <mxGeometry x="-760" y="360" width="285.01" height="120" as="geometry"/>
                </mxCell>
                <mxCell id="59" value="" style="shadow=0;dashed=0;html=1;strokeColor=none;fillColor=#4495D1;labelPosition=center;verticalLabelPosition=bottom;verticalAlign=top;align=center;outlineConnect=0;shape=mxgraph.veeam.remote_repository;fontSize=9;fontFamily=M PLUS Rounded 1c;FType=w;" parent="1" vertex="1">
                    <mxGeometry x="-616.4" y="501" width="123.7" height="110" as="geometry"/>
                </mxCell>
                <mxCell id="64" value="リモートリポジトリ" style="text;html=1;strokeColor=none;fillColor=none;align=center;verticalAlign=middle;whiteSpace=wrap;rounded=0;fontSize=9;fontFamily=M PLUS Rounded 1c;FType=w;" parent="1" vertex="1">
                    <mxGeometry x="-604.55" y="611" width="100" height="20" as="geometry"/>
                </mxCell>
                <mxCell id="76" style="edgeStyle=orthogonalEdgeStyle;rounded=0;orthogonalLoop=1;jettySize=auto;html=1;sourcePerimeterSpacing=5;targetPerimeterSpacing=5;strokeColor=#6c8ebf;fillColor=#dae8fc;fontSize=9;fontFamily=M PLUS Rounded 1c;FType=w;" parent="1" source="49" target="59" edge="1">
                    <mxGeometry relative="1" as="geometry">
                        <mxPoint x="-640" y="526" as="targetPoint"/>
                        <Array as="points">
                            <mxPoint x="-655" y="526"/>
                            <mxPoint x="-655" y="556"/>
                        </Array>
                    </mxGeometry>
                </mxCell>
                <mxCell id="71" value="&lt;br&gt;" style="edgeStyle=orthogonalEdgeStyle;rounded=0;orthogonalLoop=1;jettySize=auto;html=1;strokeColor=#6c8ebf;fillColor=#dae8fc;targetPerimeterSpacing=5;sourcePerimeterSpacing=5;fontSize=9;fontFamily=M PLUS Rounded 1c;FType=w;" parent="1" edge="1">
                    <mxGeometry relative="1" as="geometry">
                        <mxPoint x="530.166666666667" y="389.886925795053" as="targetPoint"/>
                    </mxGeometry>
                </mxCell>
                <mxCell id="48" value="" style="points=[[0.35,0,0],[0.98,0.51,0],[1,0.71,0],[0.67,1,0],[0,0.795,0],[0,0.65,0]];verticalLabelPosition=bottom;html=1;verticalAlign=top;aspect=fixed;align=center;pointerEvents=1;shape=mxgraph.cisco19.user;fillColor=#7EA6E0;strokeColor=none;fontFamily=M PLUS Rounded 1c;FType=w;" parent="1" vertex="1">
                    <mxGeometry x="-727.9659090909091" y="585.809187279152" width="50.88068181818183" height="50.88068181818183" as="geometry"/>
                </mxCell>
                <mxCell id="49" value="" style="shadow=0;dashed=0;html=1;strokeColor=none;fillColor=#4495D1;labelPosition=center;verticalLabelPosition=bottom;verticalAlign=top;align=center;outlineConnect=0;shape=mxgraph.veeam.2d.backup_repository;fontFamily=M PLUS Rounded 1c;FType=w;" parent="1" vertex="1">
                    <mxGeometry x="-730.0011363636363" y="501.0035335689046" width="54.95113636363637" height="50.88339222614841" as="geometry"/>
                </mxCell>
                <mxCell id="50" value="&lt;br&gt;" style="edgeStyle=orthogonalEdgeStyle;rounded=0;orthogonalLoop=1;jettySize=auto;html=1;strokeColor=#6c8ebf;fillColor=#dae8fc;targetPerimeterSpacing=5;sourcePerimeterSpacing=5;fontSize=9;fontFamily=M PLUS Rounded 1c;FType=w;" parent="1" source="48" target="49" edge="1">
                    <mxGeometry relative="1" as="geometry"/>
                </mxCell>
                <mxCell id="132" value="" style="edgeStyle=orthogonalEdgeStyle;rounded=0;orthogonalLoop=1;jettySize=auto;html=1;startArrow=none;startFill=0;sourcePerimeterSpacing=5;targetPerimeterSpacing=5;strokeColor=#6c8ebf;fillColor=#dae8fc;fontFamily=M PLUS Rounded 1c;fontSize=9;" parent="1" source="104" target="133" edge="1">
                    <mxGeometry relative="1" as="geometry">
                        <mxPoint x="350.6788636363637" y="885.0833333333335" as="targetPoint"/>
                    </mxGeometry>
                </mxCell>
                <mxCell id="104" value="" style="shadow=0;dashed=0;html=1;strokeColor=none;fillColor=#4495D1;labelPosition=center;verticalLabelPosition=bottom;verticalAlign=top;align=center;outlineConnect=0;shape=mxgraph.veeam.remote_repository;fontSize=9;fontFamily=M PLUS Rounded 1c;FType=w;" parent="1" vertex="1">
                    <mxGeometry x="165.68000000000004" y="830" width="123.7" height="110" as="geometry"/>
                </mxCell>
                <mxCell id="94" value="変更内容" style="text;html=1;align=center;verticalAlign=middle;resizable=0;points=[];autosize=1;fontSize=9;fillColor=#ffffff;spacing=0;fontFamily=M PLUS Rounded 1c;FType=w;" parent="1" vertex="1">
                    <mxGeometry x="-666.4" y="501" width="50" height="20" as="geometry"/>
                </mxCell>
                <mxCell id="125" value="Ver1.0 → Ver2.0" style="text;html=1;strokeColor=none;fillColor=none;align=center;verticalAlign=middle;whiteSpace=wrap;rounded=0;fontFamily=M PLUS Rounded 1c;fontSize=9;FType=w;" parent="1" vertex="1">
                    <mxGeometry x="353.25000000000006" y="813.5" width="76.4" height="16.5" as="geometry"/>
                </mxCell>
                <mxCell id="133" value="" style="shadow=0;dashed=0;html=1;strokeColor=none;fillColor=#4495D1;labelPosition=center;verticalLabelPosition=bottom;verticalAlign=top;align=center;outlineConnect=0;shape=mxgraph.veeam.2d.backup_repository;fontFamily=M PLUS Rounded 1c;FType=w;" parent="1" vertex="1">
                    <mxGeometry x="353.25" y="840" width="97.2" height="90" as="geometry"/>
                </mxCell>
                <mxCell id="135" value="リモートリポジトリ" style="text;html=1;strokeColor=none;fillColor=none;align=center;verticalAlign=middle;whiteSpace=wrap;rounded=0;fontSize=9;fontFamily=M PLUS Rounded 1c;FType=w;" parent="1" vertex="1">
                    <mxGeometry x="177.53000000000003" y="950" width="100" height="20" as="geometry"/>
                </mxCell>
                <mxCell id="136" value="ローカルリポジトリ" style="text;html=1;strokeColor=none;fillColor=none;align=center;verticalAlign=middle;whiteSpace=wrap;rounded=0;fontSize=9;fontFamily=M PLUS Rounded 1c;FType=w;" parent="1" vertex="1">
                    <mxGeometry x="345.68000000000006" y="950" width="100" height="20" as="geometry"/>
                </mxCell>
                <mxCell id="140" value="" style="points=[[0.35,0,0],[0.98,0.51,0],[1,0.71,0],[0.67,1,0],[0,0.795,0],[0,0.65,0]];verticalLabelPosition=bottom;html=1;verticalAlign=top;aspect=fixed;align=center;pointerEvents=1;shape=mxgraph.cisco19.user;fillColor=#7EA6E0;strokeColor=none;fontFamily=M PLUS Rounded 1c;FType=w;" parent="1" vertex="1">
                    <mxGeometry x="63.88409090909088" y="994.809187279152" width="50.88068181818183" height="50.88068181818183" as="geometry"/>
                </mxCell>
                <mxCell id="143" style="edgeStyle=orthogonalEdgeStyle;rounded=0;orthogonalLoop=1;jettySize=auto;html=1;startArrow=none;startFill=0;sourcePerimeterSpacing=5;targetPerimeterSpacing=5;strokeColor=#6c8ebf;fillColor=#dae8fc;fontFamily=M PLUS Rounded 1c;fontSize=9;" parent="1" source="141" target="104" edge="1">
                    <mxGeometry relative="1" as="geometry"/>
                </mxCell>
                <mxCell id="141" value="" style="shadow=0;dashed=0;html=1;strokeColor=none;fillColor=#4495D1;labelPosition=center;verticalLabelPosition=bottom;verticalAlign=top;align=center;outlineConnect=0;shape=mxgraph.veeam.2d.backup_repository;fontFamily=M PLUS Rounded 1c;FType=w;" parent="1" vertex="1">
                    <mxGeometry x="61.84886363636364" y="910.0035335689046" width="54.95113636363637" height="50.88339222614841" as="geometry"/>
                </mxCell>
                <mxCell id="142" value="&lt;br&gt;" style="edgeStyle=orthogonalEdgeStyle;rounded=0;orthogonalLoop=1;jettySize=auto;html=1;strokeColor=#6c8ebf;fillColor=#dae8fc;targetPerimeterSpacing=5;sourcePerimeterSpacing=5;fontSize=9;fontFamily=M PLUS Rounded 1c;FType=w;" parent="1" source="140" target="141" edge="1">
                    <mxGeometry relative="1" as="geometry"/>
                </mxCell>
                <mxCell id="145" value="Ver2.0" style="text;html=1;strokeColor=none;fillColor=none;align=center;verticalAlign=middle;whiteSpace=wrap;rounded=0;fontFamily=M PLUS Rounded 1c;fontSize=9;FType=w;" parent="1" vertex="1">
                    <mxGeometry x="61.849999999999994" y="893.5" width="39.6" height="16.5" as="geometry"/>
                </mxCell>
                <mxCell id="146" value="&lt;h1&gt;Pull（プル）&lt;/h1&gt;&lt;p&gt;ローカル（PC内）にリモートリポジトリの内容を複製すること&lt;/p&gt;" style="text;html=1;strokeColor=none;fillColor=none;spacing=5;spacingTop=-20;whiteSpace=wrap;overflow=hidden;rounded=0;fontSize=9;align=left;fontFamily=M PLUS Rounded 1c;FType=g;" parent="1" vertex="1">
                    <mxGeometry x="50" y="750" width="190" height="120" as="geometry"/>
                </mxCell>
                <mxCell id="147" value="Ver1.0 → Ver2.0" style="text;html=1;strokeColor=none;fillColor=none;align=center;verticalAlign=middle;whiteSpace=wrap;rounded=0;fontFamily=M PLUS Rounded 1c;fontSize=9;FType=w;" parent="1" vertex="1">
                    <mxGeometry x="189.33000000000007" y="813.5" width="76.4" height="16.5" as="geometry"/>
                </mxCell>
                <mxCell id="148" value="Ver2.0へ内容変更" style="text;html=1;strokeColor=none;fillColor=none;align=center;verticalAlign=middle;whiteSpace=wrap;rounded=0;fontSize=9;fontFamily=M PLUS Rounded 1c;FType=w;" parent="1" vertex="1">
                    <mxGeometry x="31.650000000000055" y="1045.69" width="100" height="20" as="geometry"/>
                </mxCell>
                <mxCell id="97" value="" style="shadow=0;dashed=0;html=1;strokeColor=none;fillColor=#4495D1;labelPosition=center;verticalLabelPosition=bottom;verticalAlign=top;align=center;outlineConnect=0;shape=mxgraph.veeam.remote_repository;fontSize=9;fontFamily=M PLUS Rounded 1c;FType=w;" parent="1" vertex="1">
                    <mxGeometry x="-750" y="160" width="123.7" height="110" as="geometry"/>
                </mxCell>
                <mxCell id="101" value="&lt;h1&gt;Clone(クローン)&lt;/h1&gt;&lt;p&gt;ローカル（PC内）にリモートリポジトリと同じ内容を複製する&lt;/p&gt;" style="text;html=1;strokeColor=none;fillColor=none;spacing=5;spacingTop=-20;whiteSpace=wrap;overflow=hidden;rounded=0;fontSize=9;align=left;fontFamily=M PLUS Rounded 1c;FType=g;" parent="1" vertex="1">
                    <mxGeometry x="-1640" y="50" width="800" height="50" as="geometry"/>
                </mxCell>
                <mxCell id="102" value="リモートリポジトリ" style="text;html=1;strokeColor=none;fillColor=none;align=center;verticalAlign=middle;whiteSpace=wrap;rounded=0;fontSize=9;fontFamily=M PLUS Rounded 1c;FType=w;" parent="1" vertex="1">
                    <mxGeometry x="-738.15" y="270" width="100" height="20" as="geometry"/>
                </mxCell>
                <mxCell id="152" value="" style="image;image=img/lib/atlassian/Bitbucket_Logo.svg;fontFamily=M PLUS Rounded 1c;FType=w;" parent="1" vertex="1">
                    <mxGeometry x="-710" y="141" width="17.1" height="15" as="geometry"/>
                </mxCell>
                <mxCell id="153" value="" style="dashed=0;outlineConnect=0;html=1;align=center;labelPosition=center;verticalLabelPosition=bottom;verticalAlign=top;shape=mxgraph.weblogos.github;fillColor=#7EA6E0;fontSize=9;fontFamily=M PLUS Rounded 1c;FType=w;" parent="1" vertex="1">
                    <mxGeometry x="-683.4300000000001" y="140" width="16" height="16" as="geometry"/>
                </mxCell>
                <mxCell id="158" value="" style="verticalLabelPosition=bottom;verticalAlign=top;html=1;strokeWidth=2;shape=mxgraph.arrows2.arrow;dy=0.58;dx=19;notch=0;fillColor=#dae8fc;fontFamily=M PLUS Rounded 1c;fontSize=9;align=left;strokeColor=#6c8ebf;rotation=-180;" parent="1" vertex="1">
                    <mxGeometry x="-1340" y="213" width="260" height="30" as="geometry"/>
                </mxCell>
                <mxCell id="161" value="コピー" style="text;html=1;strokeColor=none;fillColor=none;align=center;verticalAlign=middle;whiteSpace=wrap;rounded=0;fontSize=9;fontFamily=M PLUS Rounded 1c;FType=w;" parent="1" vertex="1">
                    <mxGeometry x="-602.1" y="180" width="41.4" height="20" as="geometry"/>
                </mxCell>
                <mxCell id="96" value="&lt;h1&gt;Commit（コミット）&lt;/h1&gt;&lt;h1&gt;&lt;p style=&quot;font-size: 12px ; font-weight: 400&quot;&gt;ローカルリポジトリに変更内容を反映させること&lt;/p&gt;&lt;/h1&gt;" style="text;html=1;strokeColor=none;fillColor=none;spacing=5;spacingTop=-20;whiteSpace=wrap;overflow=hidden;rounded=0;fontSize=9;align=left;fontFamily=M PLUS Rounded 1c;FType=w;" parent="1" vertex="1">
                    <mxGeometry x="-361.2" y="80" width="292.4" height="80" as="geometry"/>
                </mxCell>
                <mxCell id="6" value="" style="points=[[0.35,0,0],[0.98,0.51,0],[1,0.71,0],[0.67,1,0],[0,0.795,0],[0,0.65,0]];verticalLabelPosition=bottom;html=1;verticalAlign=top;aspect=fixed;align=center;pointerEvents=1;shape=mxgraph.cisco19.user;fillColor=#7EA6E0;strokeColor=none;fontFamily=M PLUS Rounded 1c;FType=w;" parent="1" vertex="1">
                    <mxGeometry x="-337.5" y="192.5" width="65" height="65" as="geometry"/>
                </mxCell>
                <mxCell id="34" value="ローカルリポジトリ" style="text;html=1;strokeColor=none;fillColor=none;align=center;verticalAlign=middle;whiteSpace=wrap;rounded=0;fontSize=9;fontFamily=M PLUS Rounded 1c;FType=w;" parent="1" vertex="1">
                    <mxGeometry x="-172.4" y="280" width="100" height="20" as="geometry"/>
                </mxCell>
                <mxCell id="41" value="プログラマー" style="text;html=1;strokeColor=none;fillColor=none;align=center;verticalAlign=middle;whiteSpace=wrap;rounded=0;fontSize=9;fontFamily=M PLUS Rounded 1c;FType=w;" parent="1" vertex="1">
                    <mxGeometry x="-355" y="280" width="100" height="20" as="geometry"/>
                </mxCell>
                <mxCell id="165" value="" style="shadow=0;dashed=0;html=1;strokeColor=none;fillColor=#4495D1;labelPosition=center;verticalLabelPosition=bottom;verticalAlign=top;align=center;outlineConnect=0;shape=mxgraph.veeam.2d.backup_repository;fontFamily=M PLUS Rounded 1c;FType=w;" parent="1" vertex="1">
                    <mxGeometry x="-159.2" y="185" width="86.8" height="80" as="geometry"/>
                </mxCell>
                <mxCell id="166" value="" style="verticalLabelPosition=bottom;verticalAlign=top;html=1;strokeWidth=2;shape=mxgraph.arrows2.arrow;dy=0.58;dx=19;notch=0;fillColor=#dae8fc;fontFamily=M PLUS Rounded 1c;fontSize=9;align=left;strokeColor=#6c8ebf;rotation=-90;direction=south;" parent="1" vertex="1">
                    <mxGeometry x="-230" y="190" width="30" height="70" as="geometry"/>
                </mxCell>
                <mxCell id="169" value="" style="group" parent="1" vertex="1" connectable="0">
                    <mxGeometry x="-537" y="146" width="137" height="153" as="geometry"/>
                </mxCell>
                <mxCell id="98" value="" style="shadow=0;dashed=0;html=1;strokeColor=none;fillColor=#4495D1;labelPosition=center;verticalLabelPosition=bottom;verticalAlign=top;align=center;outlineConnect=0;shape=mxgraph.veeam.2d.backup_repository;fontFamily=M PLUS Rounded 1c;FType=w;" parent="169" vertex="1">
                    <mxGeometry x="20.399999999999977" y="12" width="86.8" height="80" as="geometry"/>
                </mxCell>
                <mxCell id="103" value="ローカルリポジトリ" style="text;html=1;strokeColor=none;fillColor=none;align=center;verticalAlign=middle;whiteSpace=wrap;rounded=0;fontSize=9;fontFamily=M PLUS Rounded 1c;FType=w;" parent="169" vertex="1">
                    <mxGeometry x="12.799999999999955" y="102" width="100" height="20" as="geometry"/>
                </mxCell>
                <mxCell id="173" value="" style="fontColor=#0066CC;verticalAlign=top;verticalLabelPosition=bottom;labelPosition=center;align=center;html=1;outlineConnect=0;fillColor=#CCCCCC;strokeColor=#6881B3;gradientColor=none;gradientDirection=north;strokeWidth=2;shape=mxgraph.networks.pc;" parent="1" vertex="1">
                    <mxGeometry x="-1630" y="112.5" width="100" height="70" as="geometry"/>
                </mxCell>
                <mxCell id="177" value="" style="verticalLabelPosition=bottom;html=1;verticalAlign=top;align=center;strokeColor=#6c8ebf;fillColor=#CCCCCC;shape=mxgraph.azure.cloud;fontFamily=M PLUS Rounded 1c;fontSize=9;strokeWidth=2;" parent="1" vertex="1">
                    <mxGeometry x="-1200" y="113.5" width="70" height="50" as="geometry"/>
                </mxCell>
                <mxCell id="178" value="PC" style="text;html=1;strokeColor=none;fillColor=none;align=center;verticalAlign=middle;whiteSpace=wrap;rounded=0;fontFamily=M PLUS Rounded 1c;fontSize=9;" parent="1" vertex="1">
                    <mxGeometry x="-1590" y="130" width="40" height="20" as="geometry"/>
                </mxCell>
                <mxCell id="179" value="Web" style="text;html=1;strokeColor=none;fillColor=none;align=center;verticalAlign=middle;whiteSpace=wrap;rounded=0;fontFamily=M PLUS Rounded 1c;fontSize=9;" parent="1" vertex="1">
                    <mxGeometry x="-1185" y="100" width="40" height="20" as="geometry"/>
                </mxCell>
                <mxCell id="180" value="" style="image;image=img/lib/atlassian/Bitbucket_Logo.svg;fontFamily=M PLUS Rounded 1c;FType=w;" parent="1" vertex="1">
                    <mxGeometry x="-1187.57" y="140.5" width="17.1" height="15" as="geometry"/>
                </mxCell>
                <mxCell id="181" value="" style="dashed=0;outlineConnect=0;html=1;align=center;labelPosition=center;verticalLabelPosition=bottom;verticalAlign=top;shape=mxgraph.weblogos.github;fillColor=none;fontSize=9;fontFamily=M PLUS Rounded 1c;FType=w;strokeColor=none;" parent="1" vertex="1">
                    <mxGeometry x="-1161" y="139.5" width="16" height="16" as="geometry"/>
                </mxCell>
                <mxCell id="185" value="" style="shadow=0;dashed=0;html=1;strokeColor=none;fillColor=#4495D1;labelPosition=center;verticalLabelPosition=bottom;verticalAlign=top;align=center;outlineConnect=0;shape=mxgraph.veeam.remote_repository;fontSize=9;fontFamily=M PLUS Rounded 1c;FType=w;" parent="1" vertex="1">
                    <mxGeometry x="-1080" y="170" width="123.7" height="110" as="geometry"/>
                </mxCell>
                <mxCell id="186" value="リモートリポジトリ" style="text;html=1;strokeColor=none;fillColor=none;align=center;verticalAlign=middle;whiteSpace=wrap;rounded=0;fontSize=9;fontFamily=M PLUS Rounded 1c;FType=w;" parent="1" vertex="1">
                    <mxGeometry x="-1068.15" y="280" width="100" height="20" as="geometry"/>
                </mxCell>
                <mxCell id="187" value="" style="shadow=0;dashed=0;html=1;strokeColor=none;fillColor=#4495D1;labelPosition=center;verticalLabelPosition=bottom;verticalAlign=top;align=center;outlineConnect=0;shape=mxgraph.veeam.2d.backup_repository;fontFamily=M PLUS Rounded 1c;FType=w;" parent="1" vertex="1">
                    <mxGeometry x="-1452.4" y="180" width="86.8" height="80" as="geometry"/>
                </mxCell>
                <mxCell id="188" value="ローカルリポジトリ" style="text;html=1;strokeColor=none;fillColor=none;align=center;verticalAlign=middle;whiteSpace=wrap;rounded=0;fontSize=9;fontFamily=M PLUS Rounded 1c;FType=w;" parent="1" vertex="1">
                    <mxGeometry x="-1460" y="270" width="100" height="20" as="geometry"/>
                </mxCell>
                <mxCell id="189" value="コピー" style="text;html=1;strokeColor=none;fillColor=none;align=center;verticalAlign=middle;whiteSpace=wrap;rounded=0;fontSize=9;fontFamily=M PLUS Rounded 1c;FType=w;" parent="1" vertex="1">
                    <mxGeometry x="-1226.4" y="200" width="41.4" height="20" as="geometry"/>
                </mxCell>
                <mxCell id="191" value="Create" style="text;html=1;align=center;verticalAlign=middle;whiteSpace=wrap;rounded=0;dashed=1;dashPattern=1 2;fontFamily=M PLUS Rounded 1c;fontSize=9;fillColor=#ffffff;" parent="1" vertex="1">
                    <mxGeometry x="-1432" y="152.5" width="40" height="20" as="geometry"/>
                </mxCell>
                <mxCell id="193" value="" style="rounded=1;whiteSpace=wrap;html=1;fillColor=none;fontFamily=M PLUS Rounded 1c;fontSize=9;align=left;direction=south;strokeColor=#6c8ebf;" parent="1" vertex="1">
                    <mxGeometry x="-1570" y="436" width="320" height="164" as="geometry"/>
                </mxCell>
                <mxCell id="195" value="" style="rounded=1;whiteSpace=wrap;html=1;fillColor=none;fontFamily=M PLUS Rounded 1c;fontSize=9;align=left;direction=south;strokeColor=#6c8ebf;" parent="1" vertex="1">
                    <mxGeometry x="-1170.47" y="436" width="320" height="164" as="geometry"/>
                </mxCell>
                <mxCell id="197" value="" style="fontColor=#0066CC;verticalAlign=top;verticalLabelPosition=bottom;labelPosition=center;align=center;html=1;outlineConnect=0;fillColor=#CCCCCC;strokeColor=#6881B3;gradientColor=none;gradientDirection=north;strokeWidth=2;shape=mxgraph.networks.pc;" parent="1" vertex="1">
                    <mxGeometry x="-1630" y="402.5" width="100" height="70" as="geometry"/>
                </mxCell>
                <mxCell id="198" value="" style="verticalLabelPosition=bottom;html=1;verticalAlign=top;align=center;strokeColor=#6c8ebf;fillColor=#CCCCCC;shape=mxgraph.azure.cloud;fontFamily=M PLUS Rounded 1c;fontSize=9;strokeWidth=2;" parent="1" vertex="1">
                    <mxGeometry x="-1200" y="403.5" width="70" height="50" as="geometry"/>
                </mxCell>
                <mxCell id="199" value="PC" style="text;html=1;strokeColor=none;fillColor=none;align=center;verticalAlign=middle;whiteSpace=wrap;rounded=0;fontFamily=M PLUS Rounded 1c;fontSize=9;" parent="1" vertex="1">
                    <mxGeometry x="-1590" y="420" width="40" height="20" as="geometry"/>
                </mxCell>
                <mxCell id="200" value="Web" style="text;html=1;strokeColor=none;fillColor=none;align=center;verticalAlign=middle;whiteSpace=wrap;rounded=0;fontFamily=M PLUS Rounded 1c;fontSize=9;" parent="1" vertex="1">
                    <mxGeometry x="-1185" y="390" width="40" height="20" as="geometry"/>
                </mxCell>
                <mxCell id="201" value="" style="image;image=img/lib/atlassian/Bitbucket_Logo.svg;fontFamily=M PLUS Rounded 1c;FType=w;" parent="1" vertex="1">
                    <mxGeometry x="-1187.57" y="430.5" width="17.1" height="15" as="geometry"/>
                </mxCell>
                <mxCell id="202" value="" style="dashed=0;outlineConnect=0;html=1;align=center;labelPosition=center;verticalLabelPosition=bottom;verticalAlign=top;shape=mxgraph.weblogos.github;fillColor=none;fontSize=9;fontFamily=M PLUS Rounded 1c;FType=w;strokeColor=none;" parent="1" vertex="1">
                    <mxGeometry x="-1161" y="429.5" width="16" height="16" as="geometry"/>
                </mxCell>
                <mxCell id="203" value="" style="shadow=0;dashed=0;html=1;strokeColor=none;fillColor=#4495D1;labelPosition=center;verticalLabelPosition=bottom;verticalAlign=top;align=center;outlineConnect=0;shape=mxgraph.veeam.remote_repository;fontSize=9;fontFamily=M PLUS Rounded 1c;FType=w;" parent="1" vertex="1">
                    <mxGeometry x="-1080" y="460" width="123.7" height="110" as="geometry"/>
                </mxCell>
                <mxCell id="204" value="リモートリポジトリ" style="text;html=1;strokeColor=none;fillColor=none;align=center;verticalAlign=middle;whiteSpace=wrap;rounded=0;fontSize=9;fontFamily=M PLUS Rounded 1c;FType=w;" parent="1" vertex="1">
                    <mxGeometry x="-1068.15" y="570" width="100" height="20" as="geometry"/>
                </mxCell>
                <mxCell id="205" value="" style="shadow=0;dashed=0;html=1;strokeColor=none;fillColor=#4495D1;labelPosition=center;verticalLabelPosition=bottom;verticalAlign=top;align=center;outlineConnect=0;shape=mxgraph.veeam.2d.backup_repository;fontFamily=M PLUS Rounded 1c;FType=w;" parent="1" vertex="1">
                    <mxGeometry x="-1452.4" y="470" width="86.8" height="80" as="geometry"/>
                </mxCell>
                <mxCell id="206" value="ローカルリポジトリ" style="text;html=1;strokeColor=none;fillColor=none;align=center;verticalAlign=middle;whiteSpace=wrap;rounded=0;fontSize=9;fontFamily=M PLUS Rounded 1c;FType=w;" parent="1" vertex="1">
                    <mxGeometry x="-1460" y="560" width="100" height="20" as="geometry"/>
                </mxCell>
            </root>
        </mxGraphModel>
    </diagram>
</mxfile>